# xmcd
#
# Track frame offsets:
#	150
#	14230
#	28345
#	42423
#	56080
#	69800
#	83355
#	97220
#	111902
#	124489
#	137258
#	151044
#	165040
#	180090
#	192701
#	206779
#	222009
#	237992
#	252979
#	267815
#	280696
#	295550
#
# Disc length: 4139 seconds
#
# Revision: 2
# Processed by: cddbd v1.5.2PL0 Copyright (c) Steve Scherf et al.
# Submitted via: EasyCDDAExtractor 10.0.2.1
#
DISCID=35102916
DTITLE=Wilf Carter - (Montana Slim) - Cowboy Songs - CD1
DYEAR=1997
DGENRE=Country
TTITLE0=My Swiss Moonlight Lullaby
TTITLE1=The Capture Of Albert Johnson
TTITLE2=The Hobo's Blues
TTITLE3=Twilight On The Prairie
TTITLE4=The Roundup In The Fall
TTITLE5=A Cowboy's Best Friend Is His Pony
TTITLE6=He Rode The Strawberry Roan
TTITLE7=Little Silver Haired Sweetheart Of Mine
TTITLE8=Take Me Back To Old Montana
TTITLE9=Sway Back Pinto Pete
TTITLE10=The Yodelling Trailrider
TTITLE11=Cowboy Don't Forget Your Mother
TTITLE12=Cowboy Blues
TTITLE13=The Smoke Went Up The Chimney Just The Same
TTITLE14=Moonlight Prison Blues
TTITLE15=Prairie Blues
TTITLE16=Down The Old Cattle Trail
TTITLE17=I Miss My Swiss
TTITLE18=The Cowboy's High Tonded Dance
TTITLE19=The Hobo's Dream Of Heaven
TTITLE20=My Little Swiss And Me
TTITLE21=Lover's Lullaby Yodel
EXTD=
EXTT0=
EXTT1=
EXTT2=
EXTT3=
EXTT4=
EXTT5=
EXTT6=
EXTT7=
EXTT8=
EXTT9=
EXTT10=
EXTT11=
EXTT12=
EXTT13=
EXTT14=
EXTT15=
EXTT16=
EXTT17=
EXTT18=
EXTT19=
EXTT20=
EXTT21=
PLAYORDER=
